<?xml version="1.0" encoding="UTF-8"?>
<svg xmlns="http://www.w3.org/2000/svg" version="1.1" viewBox="0 0 215 215">
  <!-- Generator: Adobe Illustrator 29.1.0, SVG Export Plug-In . SVG Version: 2.1.0 Build 142)  -->
  <defs>
    <style>
      .st0 {
        fill: #fff;
      }
    </style>
  </defs>
  <g id="evx9kV1N7FX1" shape-rendering="geometricPrecision" text-rendering="geometricPrecision">
    <g>
      <path class="st0" d="M43.6,27.4c1.2,0,2.3,0,3.5-.3,1.4-.6,2.9-.9,3.7-2.3.6-1.2,1.4-2.3,1.7-3.7.9-2.9,2.3-5.5,4.6-7.2,2.3-1.7,4.6-2.6,7.2-2.3,1.7,0,3.5.6,5.2,1.2,2.9.6,5.5-.3,7.5-2.3.9-.6,1.2-1.7,1.7-2.6,1.2-2.6,3.5-3.7,5.8-4.9,2-.9,4-.6,5.8-.6s2.3.9,3.5,1.4c2,.9,3.7,2.6,6,2.3,1.7-.3,3.2-.9,4.6-1.4s2.6-1.7,4-2.9c1.7-1.2,3.5-2,5.5-1.7,1.7.3,3.2.6,4.6,1.2,1.2.6,2,1.4,2.9,2.3,1.2,2,3.2,3.2,5.2,3.7,1.7.6,3.7.9,5.5,0,1.7-.9,3.7-1.7,5.5-2.3,2-.6,3.7-.6,5.8,0,2.3.9,3.7,2.3,5.2,4,.9,1.2,1.7,2.6,2.3,4,1.4,3.5,4.6,4.6,8.3,3.7,2.9-.6,6-1.4,8.6,0,1.7.9,3.5,2,4.3,4,.9,2.6,1.7,5.2,2.6,7.8.6,2,2,2.9,3.7,3.7,2,.9,4.3.9,6.3.9s2.3.6,3.5,1.2c.9.6,1.7,1.4,2.6,2.3,1.7,1.7,2.6,3.5,2.6,5.8s0,4-.3,5.8c0,2.3.6,4.6,2.3,6.3.6.6,1.4,1.2,2.3,1.7,1.7.9,3.5,1.4,4.9,2.3,2.9,1.7,4.9,4.3,4.6,7.8,0,2.3-.9,4.6-1.7,6.6-1.7,4.3-1.2,7.8,2.6,10.6,2,1.7,4.3,3.5,5.2,6,.9,2.6,1.2,5.5.3,8.1-.6,2.3-2.3,4-3.7,5.8-1.7,2-2.3,4.3-1.4,6.6.9,2,2,4,3.5,5.8,1.7,2.3,2.3,4.9,1.7,7.8-.6,3.2-2,6-4.6,8.1-.9.9-2,1.7-2.9,2.6-1.4,1.4-2,3.5-1.4,5.5.3,1.2.6,2,1.2,3.2,2.3,5.2-1.2,13.5-6.9,15-.6.3-1.2.3-1.7.6-2.9.9-4.6,3.7-4,6.9.9,4.3.3,8.6-3.2,11.5-1.4,1.2-3.2,2-4.9,2.6-1.4.6-3.2.6-4.6,1.2-2.9.9-3.7,2.9-4.3,5.5-.9,5.5-2.6,7.8-7.8,9.5-1.4.6-3.2.3-4.9,0-.9,0-1.7-.3-2.6-.6-1.4-.3-4,.3-4.6,1.7-.6,1.2-1.2,2.6-2,3.7-.9,1.7-1.7,3.5-2.9,4.9s-2.9,2-4.6,2.6c-2.6.6-5.2-.3-7.8-.9-2.3-.9-4.6-2.3-7.5-1.2-1.4.6-2.6,1.4-3.7,2.3-1.4,1.2-2.3,2.6-3.7,3.7-2.6,2.6-5.8,3.7-9.2,3.2-2-.3-3.7-1.4-5.2-2.9s-2.3-2.3-3.7-3.5c-1.7-1.2-5.2-1.2-6.9.6-2,2-4,3.5-6.6,4-1.7.6-3.7.3-5.5-.3-2.6-.9-4.3-2.6-5.5-4.9-.6-1.2-1.4-2.6-2.3-3.7-1.4-1.7-3.5-2-5.5-1.4s-4,1.4-6,2c-3.2.6-6,.3-8.6-2-1.4-1.4-2.9-3.2-3.2-5.2-.3-1.4-.9-3.2-1.4-4.6-.9-2-2.6-2.9-4.9-2.9s-3.2.3-4.9.3c-1.7-.3-3.5,0-5.2-.9-2-1.2-3.2-2.3-4-4.3-.9-2.3-1.2-4.6-1.4-6.9-.3-3.7-2.6-6.9-6.3-8.1-2-.6-4.3-1.2-6.3-2.3-2.9-1.4-4-4.3-4.6-7.5-.3-2.3.3-4.6,1.2-6.9.3-.6.3-1.2,0-1.7-.6-3.2-1.7-6.3-4.9-8.1-1.2-.6-2.3-1.4-3.5-2-2.3-1.2-3.5-3.2-4.3-5.5-.9-2.3-.6-4.9.6-7.2.9-2,2-3.7,2.6-5.8.6-1.7.6-3.7,0-5.8-.6-2.6-2.6-4.3-4.3-6.3-2.6-2.9-3.5-6.3-2-10.1.9-2,2-3.5,3.7-4.9,2.9-2.3,4.3-5.2,3.7-8.9-.3-1.7-1.4-3.2-2-4.9-.9-2-1.7-4.3-1.4-6.6.6-3.2,2-5.8,4.6-7.8.9-.6,1.7-.9,2.6-1.2,2.6-1.2,4.3-3.7,3.7-6.3-.3-2-.6-4-.6-6,0-3.2,1.4-5.8,3.7-7.8,1.4-1.2,3.2-1.7,5.2-2.3,2.9-.9,4.6-2.3,5.8-5.2.6-2,.6-4.3,1.2-6.3.6-2.9,2.6-4.6,4.9-6,2.6.3,4.6,0,6.6.3ZM102,10.4h0c-2.9.3-5.8.3-8.3.9-3.7.6-7.2,1.7-10.6,2.6-4.6,1.4-9.2,2.9-13.5,5.2-2.3,1.2-4.6,2.3-6.9,3.5-6.9,4-12.9,8.6-18.7,14.1-4.6,4.6-8.9,9.5-12.7,14.7-1.7,2.6-3.7,5.5-5.5,8.1,0,0,0,.3-.3.3-.3.9-.9,2-1.2,2.9-.6,1.4-1.4,2.9-2,4.3-.6,1.2-.9,2.3-1.4,3.5-.6,1.4-1.4,2.9-1.7,4.3-1.7,6-3.7,12.1-4.6,18.4-.3,2.3-.6,4.6-.9,7.2-.3,1.7-.3,3.5-.3,5.2s-.3,4.9,0,7.2c0,2.3.3,4.6.6,6.9.3,2,.6,4.3.9,6.3.3,2.3.9,4.6,1.4,6.6,1.2,3.7,2.3,7.5,3.5,11.2.6,2,1.7,4,2.6,6.3.6,1.7,1.4,3.2,2.3,4.6,1.2,2,2.3,4,3.7,6,1.4,2.3,2.9,4.6,4.3,6.6,2.3,3.2,4.9,6,7.5,8.9,1.4,1.4,2.6,2.9,4,4.3,2.9,2.3,5.8,4.6,8.6,6.9,1.2,1.2,2.6,2,4,2.9,2,1.2,4,2.6,6,3.7,2.9,1.2,5.5,2.6,8.1,4,.9.6,2,.9,3.2,1.2,2.6.9,5.2,2,8.1,2.9,2.3.6,4.6,1.2,7.2,1.7,1.4.3,3.2.9,4.6.9,1.4.3,2.9.3,4.6.6,2.6.3,5.5.6,8.1.9,1.7,0,3.7,0,5.5-.3,3.7-.3,7.2-.6,10.9-.9,2.6-.3,5.5-.9,8.1-1.4,3.2-.9,6-1.7,9.2-2.9,2.6-.9,4.9-1.7,7.5-2.9,2-.9,3.5-2,5.5-2.9,3.5-1.7,6.6-3.5,9.8-5.8,3.7-2.9,7.5-5.8,11.2-8.9,1.4-1.2,2.6-2.3,3.7-3.5,1.4-1.4,2.6-2.9,4-4.6,1.2-1.4,2.6-2.6,3.5-4,1.4-2,2.9-4,4-6.3,1.4-2.3,2.6-4.3,4-6.6,1.2-2,2.3-4,3.5-6.3,2.9-6.3,5.5-13.2,6.6-20.1.6-3.5,1.2-6.9,1.7-10.4.6-4,.9-8.1.6-12.1v-4.9c-.3-2.6-.6-4.9-.9-7.5-.3-2.6-.9-5.5-1.4-8.1-.9-3.7-1.7-7.5-2.9-11.2-.9-2.9-2.3-5.8-3.5-8.6-1.4-3.5-3.2-6.6-4.9-9.8-1.4-2.6-3.2-4.9-4.6-7.2-3.7-5.5-8.3-10.1-12.9-14.4-2.6-2.3-5.5-4.3-8.1-6.6-1.2-.9-2.3-1.4-3.5-2.3-5.5-4-11.5-6.9-17.8-9.5-3.5-.9-6.3-1.4-9.2-2.3-3.7-1.2-7.5-2-11.5-2.6s-8.3-1.2-12.4-1.2h-4.9c-.6,0-.9-.3-1.4,0-1.4,0-2.6,0-4,.3Z"/>
      <path class="st0" d="M26.4,108.2v-5.5c.3-2.6.6-5.2.9-8.1.6-3.2,1.2-6.6,2-9.8.6-2,1.2-4,1.7-5.8,4-12.1,10.6-22.4,19.6-31.6,8.6-8.9,18.7-15.2,30.2-19.6,4.3-1.7,8.6-2.9,12.9-3.7,3.5-.6,6.9-1.2,10.4-1.4,3.2,0,6.3-.3,9.5-.3,3.2.3,6.3.6,9.5,1.2,7.8,1.2,15.2,3.7,22.4,7.2,11.5,5.5,20.7,13.2,28.8,22.7,6.6,8.3,11.8,17.5,14.7,27.6.9,3.2,2,6.6,2.6,10.1.9,3.7,1.4,7.2,1.4,10.9s.3,4.9.3,7.5c-.3,3.7-.6,7.2-1.2,10.6-.6,3.2-1.2,6.3-2,9.5-.6,2.3-1.4,4.6-2.3,6.6-4,10.6-9.5,20.1-17,28.5-7.2,7.8-15.2,13.8-24.7,18.7-4.6,2.3-9.5,4-14.4,5.5-4,1.2-8.1,2-12.1,2.6-4,.6-8.3.6-12.4.3-4,0-8.1-.6-12.1-1.2-5.5-.9-10.9-2.3-16.1-4.6-10.1-4.3-19.3-10.1-27-17.8-7.8-7.8-14.1-16.7-18.4-26.7-1.2-2.9-2.6-5.8-3.5-8.9-1.2-4-2-8.1-2.9-12.1-.9-4-1.2-8.6-.9-12.4ZM28.9,107.3c0,1.7.3,3.5.3,4.9.3,2,0,4.3.6,6.3.9,4,1.7,8.1,2.6,12.1,3.5,12.9,10.1,24.2,19.3,33.9,9.2,9.5,19.8,16.4,32.5,20.7,1.7.6,3.5,1.2,5.2,1.4,2.3.6,4.6,1.2,7.2,1.4,2.9.6,5.8.9,8.6,1.2,3.2.3,6.3,0,9.5,0h.9c2.9-.6,5.8-.9,8.6-1.4,2.6-.6,5.2-.9,7.8-1.7,3.7-1.2,7.5-2.6,10.9-4,14.1-6.6,25.6-16.7,33.9-29.9,5.8-8.9,9.5-18.7,11.5-29,1.2-5.5,1.7-11.2,1.4-17,0-1.2.3-2.3,0-3.5-.3-2.3-.6-4.6-.9-6.9-.3-2.6-.6-5.2-1.2-7.8-1.4-5.2-2.9-10.1-5.2-15-3.7-8.1-8.3-15.5-14.4-21.9-7.5-8.1-16.1-14.4-26.5-19-3.2-1.4-6.3-2.6-9.5-3.7-3.5-.9-6.9-1.7-10.4-2.3-2.6-.6-5.2-.9-7.8-1.2-6-.3-12.4-.3-18.4,1.2-3.7.9-7.2,1.4-10.6,2.6-9.5,3.2-18.4,7.8-26.2,14.1-6.3,5.2-11.8,11.2-16.4,17.8-5.5,8.1-9.2,16.7-11.5,26.2-.9,3.5-1.4,6.9-2,10.6.3,3.7.3,6.9,0,9.8Z"/>
      <path class="st0" d="M119.5,194.2c0,.9.3,1.4.3,2.3-.9.3-1.7.3-2.6.6-1.7.3-3.5.3-5.2.6-.3,0-.6.3-.9.6.3.3.6.6.9.6,1.7,0,3.2-.3,4.9-.3s2-.3,2.9,0c.3,0,.6.3.6.6.3.9.3,2,.3,2.9s-.3,1.2-1.2,1.4c-2.9.3-5.8.6-8.6.9-1.4.3-1.7-.3-1.4-1.4,0-.3.6-.9.9-.9,2.3-.3,4.6-.6,6.9-.6s.6-.3,1.2-.3h-8.1c-.9,0-1.4-.3-1.4-1.4v-3.2c0-.9.3-.9.9-1.2,1.2,0,2.3,0,3.5-.3,1.4-.3,2.9-.3,4.3-.6.6-.3,1.2-.3,2-.3Z"/>
      <path class="st0" d="M102.8,201.6v-1.2c-1.7-.3-3.5-.3-5.2-.6-.9,0-1.7,0-2.6-.3-.3,0-.9-.6-.6-.9.3-1.4.6-3.2.9-4.6,3.2.3,6,.6,8.9.6s1.2.6,1.2,1.4c0,2-.3,4-.3,6s0,1.4-1.4,1.4c-2.9,0-5.8-.3-8.3-.6-1.2,0-1.4-.9-1.2-1.7,0-.3.6-.6.9-.6,2.3.3,4.9.6,7.8.9ZM102.8,198.2h0c0-.6,0-1.2-.3-1.2-2-.3-3.7-.3-5.8-.6v1.2c2,.3,4,.3,6,.6Z"/>
      <path class="st0" d="M125.6,197c2.9-.6,5.8-1.2,8.9-2,.3,1.4.9,2.6.9,4s-.3.9-.9.9c-2.9.9-5.8,1.4-8.6,2-.6,0-1.2.3-1.7.3v-1.4c0-.3.3-.6.6-.9,2.3-.6,4.9-1.2,7.2-1.7.3,0,.6-.6.9-.9,0,0,0-.3-.3-.3-.6,0-1.2.3-1.4.3-2,.3-4,.9-6,1.2-.9.3-1.7,0-1.7-1.2-.3-1.2-.3-2.3-.6-3.5,0-.3.3-.9.6-.9,1.2-.3,2.3-.6,3.5-.9,1.7-.6,3.5-.9,5.2-1.4.6-.3,1.2-.3,1.4.6,0,.9,0,1.2-1.2,1.4-.9,0-2,.6-2.9.9-1.2.3-2.3.6-3.5.9q-.9,1.2-.3,2.6Z"/>
      <path class="st0" d="M91.1,194.2c-.3,1.2-.6,2.3-.9,3.5-.3,1.2-.6,2.6-.9,3.7-.3.6-.6.9-1.2.6-.6-.3-1.2-.3-.9-1.2.3-1.7.9-3.5,1.2-5.2.3-.9.3-1.4.6-2.3,0-.3.6-.6.9-.6.9.3,1.2.6,1.2,1.4Z"/>
      <path class="st0" d="M109.7,163.7c-3.2-.3-6.3-.3-9.5-1.2-8.3-1.7-16.1-4.6-23-9.8-9.2-6.9-15.8-15.5-19.6-26.5-1.2-3.5-1.7-7.2-2.6-10.6s-.9-7.2-.6-10.6c.3-2.6.6-5.5,1.2-8.1.9-5.5,2.6-10.4,5.2-15.2,5.8-11.2,14.1-19.8,25.9-25,3.7-1.7,7.8-2.9,11.8-4,1.7-.6,3.7-.6,5.5-.9,2-.3,4-.3,6-.3,3.5,0,6.9.3,10.1,1.2,5.8,1.2,11.5,3.2,16.7,6,9.2,5.2,16.4,12.7,21.6,22.1,2.3,4.3,4,8.9,5.2,13.5.6,2.3.9,4.6,1.2,6.9.3,2,.6,4,.6,6,0,3.2-.3,6.3-.9,9.2-1.4,9.8-5.8,18.7-11.8,26.5-4.9,6.3-11.2,10.9-18.4,14.4-3.2,1.4-6,2.6-9.2,3.7-2.3.6-4.6.9-6.9,1.4-3.5.6-6,.9-8.3,1.2ZM109.5,155.3c2.3-.3,4.6-.3,6.9-.6,5.8-.9,11.2-2.6,16.1-5.8,4.3-2.6,8.3-5.8,11.8-9.5,5.8-6.6,9.5-14.1,10.9-22.7.6-2.6.9-5.5.9-8.3s0-2.9-.3-4.3c0-2.9-.6-6-1.4-8.9-2-8.1-6-15-11.8-21-3.5-3.5-7.5-6.3-11.5-8.9-3.7-2-7.5-3.5-11.8-4.3-2.3-.6-4.6-.9-6.6-.9-2.9-.3-5.8-.3-8.6,0-3.2.3-6,.9-8.9,2-8.6,2.9-15.8,7.8-21.9,15-4.6,5.5-7.5,11.8-9.5,18.7-.9,3.2-1.2,6.6-1.4,9.8-.3,3.2,0,6.3.6,9.5.6,4.3,1.7,8.6,3.7,12.4,5.5,11.5,13.8,19.8,25.6,24.4,6,2,11.5,3.5,17.3,3.5Z"/>
      <path class="st0" d="M152.3,40.9c2.9,2.6,5.8,4.9,8.6,7.2.3.3.9.3,1.4.3.9,0,2.3.9,2.6,1.7,0,.3-.3.9-.6,1.4.3.6.9,1.2,1.4,1.7,2.6,2.6,4.3,5.5,6.3,8.3.9,1.2.6,1.7-1.7,2.3-.9-1.4-1.4-2.6-2.3-4-.6-.9-1.4-1.7-2-2.3-1.2-1.2-2.3-2.6-3.2-3.7-.9-1.2-1.2-.6-2,.3.9,1.2,2,2.3,2.9,3.5,1.4,2,3.2,4.3,4.6,6.3.6.9.6,1.4-.6,2.3-2.3,1.4-4.9,3.2-7.2,4.9-2.3-2.9-4.3-5.8-6.6-8.6,0,0-.3,0-.3.3.3,1.2.3,2.3.6,3.7.6,2.3,1.7,4.3,2.9,6,.9,1.2.3,2.3-1.2,2.3s-.6-.3-.9-.6c-2.3-2.9-3.5-6-4-9.5-.9,0-1.4,1.4-2.6.6-1.7-1.2,0-2,.3-3.2-2.9-.3-5.2-1.7-7.5-2.9-.9-.3-.6-1.2-.3-1.7.6-.9,1.2-.9,1.7-.3,1.2.6,2,1.2,3.2,1.7,1.4.6,2.9.9,4.3.9-1.7-2.9-4.6-4-6.6-6.3.3-.6.9-1.4,1.2-2,1.2-1.7,2.3-3.5,3.5-5.2.9-1.2,1.2-1.2,2.3-.3,2.3,1.7,4.6,3.7,6.6,5.5.3.3.6.6.9.6h1.2v-1.2c-.3-.6-.9-1.2-1.4-1.4-2.3-1.7-4.3-3.5-6.6-5.2-1.2-.9-1.2-1.4-.3-2.3.9-.6.9-.9,1.4-1.2ZM162.7,66.8c-1.4-2.6-3.2-4.9-5.2-7.2-.3-.3-.9-.9-1.4-.3-.6.6-.6.9,0,1.7,1.7,2,3.2,3.7,4.6,5.8.9.6,1.4.6,2,0ZM158.6,57.3c.6.9,1.4,1.7,2,2.9,1.2,1.4,2,2.9,3.2,4.3.3.3.9.3,1.4.3v-1.2c0-.3-.3-.6-.6-.9-1.4-1.7-2.9-3.7-4.3-5.5-.3-.3-.9-.6-1.2-1.2-.3.3-.6.3-.6.6.3.3,0,.3,0,.6ZM156,54.7q1.2-.9.3-1.7c-1.4-1.4-3.2-2.9-4.6-4.3-.3-.3-.9,0-1.2,0-.3.3-.3,1.2,0,1.4,1.7,1.4,3.7,3.2,5.5,4.6ZM147.7,52.7s0,.3.3.3c1.7,1.4,3.5,2.9,5.2,4.3.3,0,.9,0,.9-.3.3-.3.3-.9,0-.9-1.4-1.4-2.9-2.9-4.3-4-.9-.9-1.2-.6-2,.6Z"/>
      <path class="st0" d="M124.7,35.1c1.4.3,2.6.3,3.7.6,3.2,1.2,6.3,1.7,9.5,3.5,1.7.9,3.7,1.7,5.5,2.6.9.3.9,1.2.6,1.7-.6.9-1.2,1.4-1.4,2.3-.3.3-.3.9,0,1.2.3,1.2-.3,1.7-1.2,1.7-1.2.3-.9,1.2-.9,1.7,0,1.4-.6,2.3-1.7,2.3-.6,1.2-1.4,1.4-2.6,1.2-.9-.3-1.2-.9-.6-1.4.9-.9,0-1.2-.3-1.4-1.2-.6-2-1.2-3.2-1.4-.3,0-.9.3-1.2.6-.6.6-.9.6-1.4.3-.6-.6-2-.6-1.2-2-1.4-.3-2.9-.9-4.3-1.2s-1.7-.6-1.4-2c0-.3.3-.9.3-1.2.3-.9.6-1.7-.9-2-.3-.3-.3-.9-.3-1.2,0-.6.3-.9.3-1.4q1.4.3,1.7-1.4c.3-.6.6-1.7.9-2.9ZM132.2,40.3s0-.6-.3-.6c-1.4-.6-2.9-1.2-4.3-1.4-.3,0-.9.6-.9.9,0,.6,0,1.2.3,1.4,1.4.6,2.9.9,4,1.2.9.3,1.2,0,1.2-1.4ZM135.3,40.9c-.6,2-.6,2.3,1.2,2.9.6.3.9.6,1.4.6.3.3.9.6,1.2.6.6-.3.9-.6,1.2-1.2,0-.3,0-.9-.3-.9-1.4-.6-3.2-1.2-4.6-2ZM130.4,46.1c.3-.6.3-1.2.6-2-1.7-.3-3.2-.9-4.6-1.2-.3,0-.6.3-.9.6s0,.9,0,1.2c.9.3,1.7.6,2.6.6.6.6,1.4.6,2.3.9ZM138.2,47.5c-.6-.3-1.2-.9-2-1.2-.6-.3-1.4-.6-2.3-.6s-.3.9-.6,1.2c.9.6,1.4.9,2.3,1.4,1.4.9,1.7.9,2.6-.9Z"/>
      <path class="st0" d="M85.9,49.8c1.7-.9,3.2-1.4,4.6-2.6s2.6-2.3,4-3.7c1.2-1.2,1.4-2.9,1.2-4.6v-2c0-1.4-.3-1.7-1.7-1.4-1.7.3-3.7.9-5.5,1.4-2.3.6-4.3,1.4-6.6,2-.3-.9-.6-1.4-.9-2.3,1.4-.6,2.6-1.2,4-1.4,2.9-.9,6-1.7,8.9-2.6.3,0,.6-.6.6-.9,0-.9,0-1.4-.3-2.6.9-.3,2-.6,2.9-.6,0,1.2.3,2.3.3,3.5.9,0,1.7-.3,2.6-.3,3.5-.3,6.9-.6,10.6-.9.9,0,1.2.3,1.2,1.2s.3,1.7-1.2,1.7c-2.3,0-4.6,0-6.6.3-1.7,0-3.2.3-4.9.6-.3,0-.6.6-.6.9.3,1.4.6,2.9,1.2,4.3,1.4,3.2,4,4.6,7.2,5.5,1.2.3,2.6,0,3.7,0s1.2,0,1.2.9c0,2-.3,2-2,2-3.7,0-6.9-1.2-10.1-3.2-1.4-1.2-1.4-.9-2.6.3-1.2,1.4-2.3,2.9-3.7,4-2,1.4-3.7,2.9-6.3,3.5-.9.3-.9-.3-1.2-.6.3-1.2,0-2,0-2.3Z"/>
      <path class="st0" d="M116.1,177.5c-.3-1.7-.3-3.5-.6-4.9,0-1.4-.3-2.6-.3-4s.9-1.7,1.7-1.7,1.2.9,1.2,1.7c.3,2.6.6,5.2.6,7.8.3,2.6.6,5.2.6,7.8s0,1.4-.9,1.7-1.7.3-2.3-.9c-1.2-2-2.3-4.3-3.5-6.6-.6-.9-.9-1.7-1.4-2.6h-.3v.9c0,2.6-.3,5.2-.3,7.8s-.9,1.2-1.7,1.2-1.4-.9-1.4-1.7c.3-3.7.6-7.5.6-10.9v-5.5c0-.6.6-1.2,1.2-1.4.3,0,1.2.3,1.4.6.6.9.9,2,1.4,2.9,1.2,2.3,2.3,4.9,3.5,7.2.3,1.2.6,1.2.6.9Z"/>
      <path class="st0" d="M47.9,136.1c1.2-.3,2-.6,3.2-1.2,1.4-.6,2.6-1.2,4-1.7.6-.3,1.4-.3,1.7,0s.6,1.2.6,1.7c0,0-.3.3-.3.6-1.2.6-2.6,1.2-3.7,1.7-2.6,1.2-5.5,2.3-8.1,3.5-.9.3-1.7.6-2.6,1.2-.9.3-1.4,0-2-.6s-.6-1.4,0-2c.6-.9,1.2-1.7,1.7-2.3,1.4-1.4,2.6-2.9,4-4.3.3-.3.6-.6.9-1.2h-1.2c-2,.6-4,1.4-5.8,2.3-1.2.3-2.3.3-2.6-.3-.9-1.4-.6-2.3,1.7-2.9,3.2-1.2,6.6-2,9.8-2.9,1.2-.3,2.3-.9,3.5-1.2.6,0,1.2,0,1.7.3.6.6.6,1.4,0,2-1.2,1.4-2.6,2.9-4,4.3s-1.4,1.7-2.3,2.6c-.6,0-.6.3-.3.3Z"/>
      <path class="st0" d="M158.3,155.9c0,.3,0,.6-.3.9-.6.9,0,1.4.9,1.7,1.2.6,2.6,1.2,3.7,1.7,1.2.6,1.4,2,.6,3.2-.6.6-1.7.6-2.9,0-1.2-.9-2.3-1.4-3.5-2.3-.6-.6-1.2-.3-1.7.3q-1.4,1.4-.3,3.2c.9,1.2,1.4,2.3,2.3,3.5.6.9,0,1.4-.9,1.7-.6.3-1.4.6-2-.3-2.9-4.3-6-8.3-8.9-12.7-.9-1.2-.6-2,.6-2.9,1.2-1.2,2.3-2,3.5-3.2,1.2-1.2,2.9-1.2,4-.9,3.2.9,4.6,2.9,4.9,6ZM148.8,155.9c.6,1.2,1.2,2,1.7,2.9.9,1.2,1.2,1.2,2.3.3,1.7-1.2,2-2.6,1.7-4.3-.3-1.4-2-2.3-3.2-1.4-.9.9-1.7,1.7-2.6,2.6Z"/>
      <path class="st0" d="M78.1,53c.3-.3.6-.6.9-.6.6-.6,1.2-.3,1.4.3s.3,1.2-.3,1.4c-.9.3-.9.9-.3,1.4.3.6.9,1.4,1.2,2-1.7,1.2-3.5,2.3-5.2,3.7-2.9,2.6-5.5,5.2-8.3,7.8-.6.6-.9.9-1.4.3-.3-.3-.3-.9-.3-1.4s.6-.9.9-1.2c2.9-3.2,5.8-5.8,9.2-8.3.6-.3.9-.6,1.4-1.2.3-.3,0-.9,0-1.2h-.9c-3.7,2.9-7.8,5.8-10.6,9.5-.9,1.2-1.7,2-2.6,3.2-.6.6-1.2.9-1.7.3-.6-.6-.3-1.2,0-1.7,4-4.6,8.1-9.2,13.5-12.7.3-.3.3-.9.3-1.2-.3,0-.9-.3-1.2,0-2.3,1.7-4.6,3.5-6.6,5.2-1.7,1.4-3.2,3.2-4.6,4.9-.3.3-.9.3-.9,0-.3.3-.6-.3-.6-.9s.3-.6.6-.9c3.7-4,7.8-7.5,12.4-10.6q1.7-1.2,2.9.9c.3.3.6.6.9.9Z"/>
      <path class="st0" d="M102.8,171.7c.3-1.4.3-2.6.6-4,.3-.9.9-1.4,2-1.2.9.3,1.2,1.2,1.2,2s-.3,1.4-.3,2.3c-.3,3.2-.6,6.6-.9,9.8,0,1.2-.3,2.3-.6,3.2-.6,1.4-1.7,2-3.2,2.3-2.3.6-4.6-.3-6.3-2-.9-.9-1.2-2-.9-3.5.6-2.9,1.2-5.8,1.7-8.6.3-1.7.6-3.2,1.2-4.9.3-.9,1.2-1.4,2-1.2s1.2.9.9,1.7c-.6,3.2-1.2,6.3-1.7,9.8-.3.9-.3,2-.6,2.9-.3.9.6,2,1.7,2,1.7.3,2.3,0,2.3-1.4.3-1.7.3-3.5.6-5.2-.3-1.2,0-2.6.3-4h0Z"/>
      <path class="st0" d="M33.5,121.1c0-1.4.6-2.9,1.4-4s2.3-1.2,3.5-1.4c3.5-.9,7.2-1.4,10.9-2.3.9-.3,1.4,0,1.7.9s-.3,1.7-1.2,2c-2,.6-4,.9-6,1.2-2,.3-3.7.9-5.8,1.2-.9.3-1.2.9-1.4,2,0,1.2,0,2,1.2,2.3.9.3,2,0,2.9-.3.9,0,1.7-.3,2.3-.6,2.6-.6,5.2-1.2,7.8-2,.9-.3,1.4,0,1.4,1.2,0,1.7-.3,2-2.3,2.3-1.7.3-3.2.9-4.6,1.2-1.7.3-3.5.6-5.2,1.2-.6,0-1.2.3-1.7.3-2.6.6-4.9-1.4-4.9-4.9Z"/>
      <path class="st0" d="M58.3,166.5c-.3-.3-.6-.9-.9-1.2-.3-.6-.3-1.2.3-1.7,1.2-1.2,2.3-2.6,3.5-3.7.6-.6.6-.9,0-1.4-.9-.6-1.7-1.4-2.6-2-.3-.3-.9-.3-1.2,0-.9.6-1.7,1.4-2.6,2.3-1.2.9-2,.9-2.9,0s-.3-1.7.6-2.6c1.7-1.7,3.7-3.2,5.5-4.6s3.5-2.9,5.2-4.3c.6-.6,1.4-.9,2.3-.3s.9,1.2.3,1.7c-.3.6-.9.9-1.2,1.4-1.2,1.2-2.6,2.3-3.7,3.5-.6.6-.6.9,0,1.4.9.6,1.7,1.4,2.6,1.7.6,0,1.4-1.2,2-2l2.9-2.9c.6-.6,1.4-.9,2,0,.6.6.6,1.4,0,2-2.6,3.2-5.2,6-8.1,9.2-.9.9-1.7,2-2.6,2.9-.3,0-.9.3-1.4.6Z"/>
      <path class="st0" d="M161.8,146.7c1.2-.3,2.3-.6,3.5-1.2,2-.9,3.7-.3,5.5.9.6.6,1.2,1.4,1.4,2.3.9,3.5,0,6.6-3.5,8.1-1.4.6-3.2.9-4.6,0-.3-.3-.6-1.2-.9-1.7,0-.6.3-.9,1.2-1.2.6,0,1.4-.3,2-.3,1.2-.3,2.9-1.7,2.9-2.6,0-1.7-1.2-2.9-2.9-2.6-1.4.3-2.9.9-4.3,1.2-1.7.6-4.9-.3-6-2.6-1.2-2.6-.6-5.5,1.4-6.6,1.2-.6,2.6-1.2,4.3-.9.9.3,1.2.9,1.2,1.4,0,.9-.3,1.2-1.2,1.2s-1.2,0-1.7.3c-.9.3-1.4.9-1.4,1.7s.9,1.7,1.7,1.7c.9.9,1.2.6,1.4.9h0Z"/>
      <path class="st0" d="M70.3,172.3c-.3-.3-.3-.6-.6-.9-1.4-.9-2.9-2-4.3-2.9h-.9c-.6.3-.9.6-1.2.9-.6.6-1.2.3-1.7-.3s-.9-1.4-.3-1.7c1.4-1.2,2.9-2.3,4.3-3.2.3-.3.6-.3.6-.6,2.6-2,5.2-4.3,8.1-6.3.6-.3,1.4-.6,1.7-.3.6.3,1.2,1.2.9,2-.6,1.7-.9,3.5-1.4,4.9-.9,3.5-2,6.9-2.9,10.1-.3.9-1.2,1.4-2,1.2-1.2-.3-1.4-1.2-.9-2,.3,0,.3-.3.6-.9ZM68,166c.9.6,1.7,1.2,2.6,1.7.6.3,1.2.3,1.2-.6.3-.9.6-2,.9-2.9.3-.6.3-1.2.6-1.7,0,0-.3,0-.3-.3-1.7,1.4-3.2,2.6-4.9,3.7Z"/>
      <path class="st0" d="M58.6,145.3c.3-2.6-2.3-3.2-4-2.6-2.6.9-4.6,2.6-6.3,4.6-.3.6-.6,1.7-.3,2.3.3.9,1.2,1.4,2,1.7.9.3,1.4-.6.9-1.4,0-.3-.3-.6-.3-.9-.3-.6-.6-1.4.3-2,.6-.3,1.7-.6,2.3.3.6.9,1.2,2,1.7,2.9.3.3,0,.9,0,1.2-1.2,1.4-2.6,2.3-4.3,2.6-2,.3-4.3-1.4-5.2-3.2s-.6-4.3.9-6c1.7-2.3,4-4,6.9-4.9.9-.3,1.7-.9,2.6-.9,2.9-.6,6,2,6.3,4.9,0,.9-.6,2-.9,2.9-.6.6-1.4.6-2,.6s-.6-.9-.6-1.2v-.9Z"/>
      <path class="st0" d="M146,172.6c1.4-.9,2.6-1.4,3.7-2,1.2-.6,2-.3,2.6.9.3.3,0,1.2-.3,1.4-2,1.2-3.7,2.6-5.8,3.5-.9.3-1.7,0-2-.9-1.2-2.3-2.3-4.9-3.5-7.2-.9-1.4-1.4-3.2-2.3-4.6-.9-1.7-1.2-2.6,0-3.5.6-.6,1.4-.9,2-1.4.6-.3.9-.6,1.4-.9s1.2-1.2,2-.3c.6.6.6,2,0,2.6s-1.2.9-1.7,1.2c-.6.3-.9.9-.3,1.4.3.6.6,1.4.9,2s.6.6,1.2.3c.9-.6,1.7-1.2,2.6-1.4.9-.3,1.2,0,1.7.6.3.6.6,1.2,0,1.7-.9.6-1.7,1.2-2.6,2-.3.3-.6.9-.6,1.4s.6.9.6,1.4c-.3.3-.3.9.3,1.7Z"/>
      <path class="st0" d="M41,105h5.8c.9,0,1.2-.3.9-1.2v-2.3c0-1.4,1.2-2,2.3-1.7.3,0,.9.6.9.9,0,3.5.3,6.6.3,10.1s-1.2,2.6-2.6,1.4c-.3-.3-.6-.9-.6-1.4q0-2.3-2.3-2.3h-11.2c-.6,0-1.2-.6-1.4-.9-.3-.6-.3-1.7.6-2,.6-.3,1.2-.6,1.7-.6h5.8Z"/>
      <path class="st0" d="M133.3,175.2v-11.8c.3-.3.9-.9,1.4-1.2.3,0,.6.6.9.9v.3c0,2.9.3,5.8.3,8.6s.3,4.9.3,7.5-.3,1.4-.9,1.7c-1.2,1.2-2.6.6-3.2-1.4-1.4-3.2-2.9-6-4.3-9.2-.9-1.4-1.4-3.2-2-4.6,0-.3.3-1.2.6-1.4.6-.3,1.2,0,1.7,0s.6.6.6.9c.9,2,1.7,4.3,2.9,6.3.3,1.4.9,2.3,1.7,3.5Z"/>
      <path class="st0" d="M167.5,126.6c-.3.9-.3,1.4-.3,2s0,.9-.3,1.2c-.6,1.4-1.2,1.7-2.3,1.4-.9-.3-1.2-1.2-.9-2.3.6-2.6,1.4-5.2,2.3-7.8,0-.3,0-.6.3-.9.3-1.2.9-1.4,2-1.4s1.2.9.9,1.7c0,.9-.3,2-.6,2.9.9.3,1.4.6,2,.9,2.6.9,5.5,2,8.1,2.9.9.3,2,.6,2.9.9,1.2.6,1.4,1.4,1.2,2-.3.9-1.4,1.2-2.3.9-2-.6-4-1.4-6-2-2.3-.9-4.3-1.7-6.9-2.3Z"/>
      <path class="st0" d="M172.4,110.5c-.9-.6-1.4-1.2-2.3-1.7-.6-.6-1.4-.9-2-1.2-.9-.6-.9-1.7-.3-2.3.6-.9,1.2-.6,2-.3,1.4.9,2.9,1.7,4,2.6,1.2.9,2.3,1.2,3.7,1.4,2.3.3,4.9.6,7.2.9.9.3,1.4,1.2.9,2.3-.3.3-1.2.9-1.4.9-3.2,0-6-.3-9.2-.3s-2,.9-3.2,1.4-1.4.9-2,1.2c-1.2.6-2.3.6-2.6-.3s0-2,1.2-2.6c1.2-.6,2.3-1.2,4-2Z"/>
      <path class="st0" d="M80.4,48.9c-1.2.3-2,.6-2.6-.3-.3-.3-.6-.3-.9-.3-.9.3-1.4.6-2.3,1.2-1.2.9-2.6,1.7-3.7,2.6-4.3,3.2-8.3,6.6-11.5,10.9-.6.9-1.4,1.7,0,2.9.3,0,0,.9,0,1.2-.3.3-1.2.6-1.4.6-.9-.3-1.4-.9-2-1.7-.6-.6-.6-1.4,0-2,1.2-1.4,2.3-2.6,3.5-4,4.6-5.5,10.1-9.8,16.1-13.5l1.7-.9c.9-.6,1.4-.6,1.7.6.6.9,1.2,1.7,1.4,2.9Z"/>
      <path class="st0" d="M125.8,28.5h1.4c.9,0,1.4.3,1.4,1.4s.6.9.9,1.2c2.3.9,4.6,1.2,6.6,2,2,.9,4,1.7,6,2.6,1.4.6,2.6,1.2,4,2,.3.3,1.2.9,1.2.9-.3.9-.6,1.4-1.2,2h-.6c-5.8-3.5-11.8-5.5-18.1-7.5h-.6c-1.4,0-1.7-.6-1.7-2s.3-1.7.6-2.6Z"/>
      <path class="st0" d="M60.3,54.4c.3-.6.9-.9,1.2-1.7-1.4-.3-2.6-.6-3.7,0-.6.3-1.2.3-1.4-.3-.3-.3,0-.9,0-1.4.9-1.2,1.7-2.3,2.6-3.5,0-.3-.3-.6-.3-.9l.9-.9c.3-.3.9-.3.9-.3.9.3,1.4,0,2-.3,1.2-.6,2-1.4,3.2-2,1.2,1.7.9,2.3-.6,2.9v3.5c1.2-.6,1.7-1.2,2.6-1.7,1.2.9,1.4,1.2.3,2-.9.9-2.3,1.4-3.5,2,0,.6-.3.6-.6.9-.6.6-.9,1.4-1.4,2-1.2,1.2-1.7.9-2-.3ZM60,50.1v.3c.6,0,.9.3,1.4.3,1.4,0,2-1.2,1.4-2.3,0-.3-.6-.3-.6-.3-.9.6-1.7,1.4-2.3,2Z"/>
      <path class="st0" d="M162.7,132.9c.3.3.9.6,1.2.9s.6.6.9.6c2.3,1.2,4.6,2.3,6.9,3.7,1.7.9,3.5,2,5.2,3.2,1.2.9,1.4,1.4.9,2.6-.6.9-1.4,1.2-2.6.3-4.3-2.6-8.9-4.9-13.2-7.5-1.2-.6-1.2-1.4-.9-2.3,0-1.2.9-1.2,1.7-1.4Z"/>
      <path class="st0" d="M171,89.8c0-2.6,1.7-4.6,4.3-4.3,2.6,0,4,1.7,4.3,4.6,0,2-2.3,4.3-4,4.3-2.9,0-4.6-1.7-4.6-4.6Z"/>
      <path class="st0" d="M77,178.9c-1.4,0-2.3-.9-2-1.7.3-.6.6-1.2.9-2,.9-1.4,1.4-3.2,2.3-4.6.6-1.4,1.4-2.6,2-4,.3-.6.6-.9.6-1.4.6-.9.9-2,1.4-2.9.3-.9,1.4-1.2,2.3-.6.9.3,1.2,1.2.6,2-2,4-4,8.1-6,12.1-.3.9-.6,1.7-1.2,2.3,0,.3-.6.6-.9.9Z"/>
      <path class="st0" d="M49.4,85.7c0,2.6-1.7,4.6-4.3,4.3-2.3,0-4.3-1.4-4.3-4.6s2.3-4.3,4.3-4.3c2.3.3,4.6,2.3,4.3,4.6Z"/>
      <path class="st0" d="M124.4,172c.3,1.4.3,2.9.6,4.3.3,2.3.9,4.3,1.2,6.6.3,1.2-.3,1.7-1.2,2-1.2.3-1.4-.3-1.7-1.4-.3-2-.6-3.7-1.2-5.8-.3-2.3-.9-4.6-1.2-6.9-.3-1.2-.3-2.3-.6-3.5,0-.9,1.2-1.7,2-1.7s1.2.6,1.2,1.4c.3,1.4.6,2.6.9,4v.9c0-.3,0,0,0,0Z"/>
      <path class="st0" d="M55.1,59.3c.6-.6.9-1.2,1.4-1.7s.6-.6.9-.3c.3.3.9.6.9.9s-.3.6-.3.9c-.6.9-1.2,1.7-1.7,2.3q-1.2,1.4-2.6.3c-1.4-1.2-2.6-2-4-3.2-.9-.6-.9-1.2-.3-2,.9-1.2,1.7-2.3,2.6-3.2.3-.6,1.2-.9,1.4-.3.3.6.6,1.2-.3,1.7-.6.6-.9,1.2-1.2,2,0,.3.3.6.6.9.3-.3.6-.3.9-.6.6-.6.9-1.2,1.4-1.7s.6,0,.9,0v1.2c-.3.6-.9,1.2-1.2,1.7-.3.3,0,.6,0,.9.3,0,.6,0,.6.3Z"/>
      <path class="st0" d="M71.8,37.4c1.2,2.3,2.3,4.3,3.5,6.6.3.9.3,1.2-.3,1.7-1.2.6-2.6,1.4-4,2,0-.6-.3-1.2-.3-1.7.9-.6,1.4-.9,2.3-1.4-.3-1.4-.6-1.7-1.7-.6-.3.3-.6.6-.6.6-.3.6-1.2.6-1.4,0-.3-.3,0-1.2.3-1.4.3-.6,1.2-.6,1.4-1.2.3-.3.3-1.2.3-1.4-.6,0-.9,0-1.4.3s-.9.9-1.4,1.2c-.3.3-.9.3-.9,0-.3-.3-.3-1.2-.3-1.4.9-1.4,2.6-2.6,4.6-3.2Z"/>
      <path class="st0" d="M118.4,27.4c1.4.3,2.9.6,4,.9.9.3.9,1.2.6,2.3-.3.9-.9.6-1.4.6-1.4-.3-2.9-.6-4.3-.6s-.9-.3-.9-.9q-.3-2,2-2.3Z"/>
      <path class="st0" d="M120.7,36v1.7c0,.9-.6,1.7-1.7,1.2h-.6c-2.3,0-2.6-.6-2-3.2,1.2,0,2.6,0,4.3.3Z"/>
      <path class="st0" d="M117.2,44.9h.6c1.7,0,2.3.9,1.4,2.3,0,.3-.6.3-.6.3h-1.2c-1.4,0-2-.9-1.7-2.3,0-.3.3-.3.6-.3h.9Z"/>
      <path class="st0" d="M106.9,125.7h-34.2c-.6-1.4-1.2-2.6-1.7-4h35.9v-.3c-.3,0-.9-.3-1.2-.3h-33.9c-.9,0-1.2-.3-1.4-1.2-.3-1.4-.6-2.9-1.2-4.6h31.3v-.6c-.3,0-.9-.3-1.2-.3h-27.9q-2.6,0-2.9-2.6v-3.5h81.4v2.3c0,.6,0,1.2-.3,1.7q-.3,2.3-2.6,2.3h-27c-.6,0-.9,0-1.4.3,3.5.6,6.6.3,10.1.3h20.7c-.6,2-.9,3.7-1.4,5.5h-35.4v.6h34.8c-.6,1.4-1.2,2.6-1.4,3.7,0,.3-.6.3-1.2.3h-32.2v.3c.3,0,.3.3.6.3h32.5c-.6.9-.9,2-1.4,2.6s-.9.6-1.4.6h-29c-.3,0-.9,0-1.2.3v.6h31.1c-.6.9-1.2,1.7-1.7,2.3-.3.3-.9.6-1.4.6h-62.1c-1.7,0-2.9-.9-3.2-2.9h31.3v-.3c-.3,0-.3-.3-.6-.3h-30.5c-.9,0-1.4-.3-1.7-1.2-.3-.6-.6-1.2-1.2-2h33.9c.3-.3.3-.6.3-.6ZM103.1,114.8v2.3h5.5v13.2h2.6v-13.2h5.5v-2.3h-5.8v-4.3h-2.6v4.3h-5.2Z"/>
      <path class="st0" d="M147.1,91.2h-15.2v.3h14.4c.9,0,1.2.3,1.4.9.6,2.3,1.2,4.6,2,6.9,0,.3,0,.9.3,1.4h-80.5c.3-1.4.6-2.9.9-4.3.3-1.2.9-2,1.2-3.2.3-1.4.9-1.7,2-1.7h14.1v-.6c-.3,0-.6-.3-1.2-.3h-14.4c.6-1.2.9-2,1.4-2.9,1.2-2,2.6-4.3,4-6.3.6-.9,1.4-1.2,2.6-1.2h59.2c1.2,0,1.7.3,2.6,1.2,2,3.2,3.7,6.3,5.2,9.8ZM115.8,97.2c.3.3.6.3.9.6,2.3,1.7,5.2,2.3,7.8,1.4,4.9-1.7,7.8-6.9,5.2-12.1-2.3-4.9-8.1-6.6-12.7-3.5-.9.6-1.4.6-2.6,0-2.3-1.4-4.6-2.3-7.5-1.2-1.2.6-2.3,1.2-3.5,1.7-.3-.3-.6-.3-.9-.6-2.3-1.4-4.9-2-7.5-1.2-5.5,1.7-8.1,8.6-4.3,13.5,2.9,3.5,8.1,4.6,11.8,2,.9-.6,1.7-.6,2.6,0,2.6,1.7,5.2,2,8.1.9.6-.9,1.7-1.2,2.6-1.7Z"/>
      <path class="st0" d="M139.6,79.7h-60.4v-.3c6-6.9,13.5-11.2,22.7-12.9,15-2.6,27.6,2,38,12.9,0,0-.3.3-.3.3Z"/>
      <path class="st0" d="M150,101.3c0,2.3.3,4.3.3,6.3h-81.7c0-1.2,0-2,.3-3.2,0-1.2.3-2.3.3-3.2,27,0,53.8,0,80.8,0Z"/>
      <path class="st0" d="M77.8,133.5h63.5c-.6,1.7-2.3,3.5-4.3,3.5h-55.2c-.9,0-1.4-.3-2-.9-.6-.9-1.4-1.7-2-2.6Z"/>
      <path class="st0" d="M137.9,137.5c-1.7,1.4-2.6,2.9-4.9,2.9h-46c-1.7,0-3.2-.6-4.6-1.7l-1.2-1.2h56.6Z"/>
      <path class="st0" d="M85.6,141h47.7c-1.2,1.2-2.3,2-4,2h-38.8c-2,.3-3.5-.6-4.9-2Z"/>
      <path class="st0" d="M90.2,143.8h38.5c-.9.9-1.7,1.4-3.2,1.4h-32.2c-1.2,0-2.3-.9-3.2-1.4q0,.3,0,0Z"/>
      <path class="st0" d="M95.1,146.1h28.8c-1.2.9-2.6,1.4-4.3,1.4h-20.4c-1.4,0-2.9-.6-4.3-.9q.3-.3.3-.6Z"/>
      <path class="st0" d="M117.8,148.1c-5.5,1.2-10.6,1.2-16.1.3v-.3h16.1Z"/>
      <path class="st0" d="M116.9,85.7c4-3.2,8.1-2,10.1.3,2.6,2.9,2.6,6.3.3,9.2-2.3,2.9-6.9,3.5-10.1.6,1.4-3.5,1.7-6.9-.3-10.1ZM127.3,91.5c-.6-.6-5.8-.9-7.2-.6-.3,0-.3.3-.6.6h7.8Z"/>
      <path class="st0" d="M102.3,85.7c-2,3.5-2.3,6.6,0,10.1-3.2,2.9-7.2,2.6-10.1-.3-2.6-2.9-2.6-6.3,0-9.2,2.9-3.2,6.6-3.5,10.1-.6ZM91.9,91.5h7.8c-.9-.6-7.2-.6-7.8,0Z"/>
      <path class="st0" d="M114.3,95.8c-3.7,2.6-7.5,2-9.5-.3,2-4.6,1.7-6,0-10.1,2.3-2.3,5.8-2.6,8.6-.9,1.2.6.9.9.3,2-.9,1.7-1.2,3.5-.6,5.2.3,1.4.6,2.9,1.2,4ZM111.5,91.5c-.6-.9-3.5-.9-4,0h4Z"/>
      <path class="st0" d="M115.8,87.5c1.2,2.3.9,4.3,0,6.3-1.4-1.2-1.4-4.9,0-6.3Z"/>
      <path class="st0" d="M103.4,93.8c-1.2-1.4-1.2-4.6,0-6.3,1.2,1.2,1.2,4.9,0,6.3Z"/>
    </g>
  </g>
</svg>
